<svg width="27" height="29" viewBox="0 0 27 29" fill="none" xmlns="http://www.w3.org/2000/svg">
<path d="M12.5085 26.9169C5.61356 26.9169 0 20.877 0 13.4585C0 6.03989 5.61356 0 12.5085 0C19.4034 0 25.0169 6.03989 25.0169 13.4585C25.0169 20.877 19.4034 26.9169 12.5085 26.9169ZM12.5085 1.96953C6.61424 1.96953 1.83051 7.1297 1.83051 13.4585C1.83051 19.7872 6.61424 24.9474 12.5085 24.9474C18.4027 24.9474 23.1864 19.7872 23.1864 13.4585C23.1864 7.1297 18.4027 1.96953 12.5085 1.96953Z" fill="#292D32"/>
<path d="M25.3226 28.2295C25.0907 28.2295 24.8589 28.1376 24.6758 27.9406L22.2352 25.3146C21.8813 24.9338 21.8813 24.3036 22.2352 23.9228C22.589 23.542 23.1748 23.542 23.5287 23.9228L25.9694 26.5488C26.3233 26.9296 26.3233 27.5599 25.9694 27.9406C25.7863 28.1376 25.5545 28.2295 25.3226 28.2295Z" fill="#292D32"/>
</svg>
