<svg width="169" height="234" viewBox="0 0 169 234" fill="none" xmlns="http://www.w3.org/2000/svg">
<path d="M5.66534 1.1748L0.915039 9.34088M5.66534 56.9763L0.915039 65.1424M5.66534 112.778L0.915039 120.944M5.66534 168.579L0.915039 176.745M5.66534 224.381L0.915039 232.547M38.1258 1.1748L33.3755 9.34088M38.1258 56.9763L33.3755 65.1424M38.1258 112.778L33.3755 120.944M38.1258 168.579L33.3755 176.745M38.1258 224.381L33.3755 232.547M70.5862 1.1748L65.8359 9.34088M70.5862 56.9763L65.8359 65.1424M70.5862 112.778L65.8359 120.944M70.5862 168.579L65.8359 176.745M70.5862 224.381L65.8359 232.547M103.047 1.1748L98.2963 9.34088M103.047 56.9763L98.2963 65.1424M103.047 112.778L98.2963 120.944M103.047 168.579L98.2963 176.745M103.047 224.381L98.2963 232.547M135.507 1.1748L130.757 9.34088M135.507 56.9763L130.757 65.1424M135.507 112.778L130.757 120.944M135.507 168.579L130.757 176.745M135.507 224.381L130.757 232.547M167.967 1.1748L163.217 9.34088M167.967 56.9763L163.217 65.1424M167.967 112.778L163.217 120.944M167.967 168.579L163.217 176.745M167.967 224.381L163.217 232.547" stroke="#34251F" stroke-width="2"/>
</svg>
