<svg width="18" height="18" viewBox="0 0 18 18" fill="none" xmlns="http://www.w3.org/2000/svg">
<path d="M8.58223 17.1629C3.85154 17.1629 0 13.3117 0 8.58144C0 3.85118 3.85154 0 8.58223 0C13.3129 0 17.1645 3.85118 17.1645 8.58144C17.1645 13.3117 13.3129 17.1629 8.58223 17.1629ZM8.58223 1.25582C4.53812 1.25582 1.25594 4.54607 1.25594 8.58144C1.25594 12.6168 4.53812 15.9071 8.58223 15.9071C12.6264 15.9071 15.9085 12.6168 15.9085 8.58144C15.9085 4.54607 12.6264 1.25582 8.58223 1.25582Z" fill="#292D32"/>
<path d="M17.3737 17.9999C17.2146 17.9999 17.0555 17.9413 16.9299 17.8157L15.2554 16.1413C15.0125 15.8985 15.0125 15.4967 15.2554 15.2539C15.4982 15.0111 15.9001 15.0111 16.1429 15.2539L17.8175 16.9283C18.0603 17.1711 18.0603 17.573 17.8175 17.8157C17.6919 17.9413 17.5328 17.9999 17.3737 17.9999Z" fill="#292D32"/>
</svg>
