<svg width="18" height="18" viewBox="0 0 18 18" fill="none" xmlns="http://www.w3.org/2000/svg">
<path d="M8.58223 17.1629C3.85154 17.1629 0 13.3117 0 8.58144C0 3.85118 3.85154 0 8.58223 0C13.3129 0 17.1645 3.85118 17.1645 8.58144C17.1645 13.3117 13.3129 17.1629 8.58223 17.1629ZM8.58223 1.25582C4.53812 1.25582 1.25594 4.54607 1.25594 8.58144C1.25594 12.6168 4.53812 15.9071 8.58223 15.9071C12.6264 15.9071 15.9085 12.6168 15.9085 8.58144C15.9085 4.54607 12.6264 1.25582 8.58223 1.25582Z" fill="#292D32"/>
<path d="M17.3747 18.0004C17.2156 18.0004 17.0565 17.9418 16.9309 17.8162L15.2563 16.1418C15.0135 15.899 15.0135 15.4972 15.2563 15.2544C15.4991 15.0116 15.901 15.0116 16.1439 15.2544L17.8184 16.9288C18.0613 17.1716 18.0613 17.5734 17.8184 17.8162C17.6928 17.9418 17.5338 18.0004 17.3747 18.0004Z" fill="#292D32"/>
</svg>
