<svg width="28" height="18" viewBox="0 0 28 18" fill="none" xmlns="http://www.w3.org/2000/svg">
<path d="M1.45108 0.00589425C0.99976 0.0675271 0.595612 0.279658 0.327542 0.59562C0.0594726 0.911582 -0.0505596 1.30549 0.0216514 1.6907C0.0938624 2.0759 0.342401 2.42085 0.712593 2.64965C1.08278 2.87845 1.5443 2.97236 1.99562 2.91073H7.10072L7.40702 3.63694L8.80242 7.26798L10.1978 10.899C10.3339 11.2767 10.9125 11.6252 11.355 11.6252H23.2669C23.7433 11.6252 24.2879 11.2767 24.424 10.899L27.1808 3.63694C27.3169 3.25931 27.1127 2.91073 26.6362 2.91073H11.5251L10.2318 0.819248C10.0941 0.579191 9.8814 0.376233 9.61719 0.232726C9.35297 0.0892181 9.04748 0.0107265 8.73435 0.00589425L1.92755 0.00589425C1.82566 -0.00196475 1.72314 -0.00196475 1.62125 0.00589425C1.55324 0.00240531 1.48505 0.00240531 1.41704 0.00589425L1.45108 0.00589425ZM12.2058 14.5301C11.2529 14.5301 10.5041 15.1691 10.5041 15.9825C10.5041 16.7958 11.2529 17.4349 12.2058 17.4349C13.1588 17.4349 13.9075 16.7958 13.9075 15.9825C13.9075 15.1691 13.1588 14.5301 12.2058 14.5301ZM22.416 14.5301C21.4631 14.5301 20.7143 15.1691 20.7143 15.9825C20.7143 16.7958 21.4631 17.4349 22.416 17.4349C23.369 17.4349 24.1177 16.7958 24.1177 15.9825C24.1177 15.1691 23.369 14.5301 22.416 14.5301Z" fill="black"/>
</svg>
