<svg width="21" height="20" viewBox="0 0 21 20" fill="none" xmlns="http://www.w3.org/2000/svg">
<path d="M0 2.5C0 1.83696 0.221252 1.20107 0.615082 0.732233C1.00891 0.263392 1.54306 0 2.10002 0H11.5501C12.1071 0 12.6412 0.263392 13.0351 0.732233C13.4289 1.20107 13.6501 1.83696 13.6501 2.5V5C13.6501 5.33152 13.5395 5.64946 13.3426 5.88388C13.1457 6.1183 12.8786 6.25 12.6001 6.25C12.3217 6.25 12.0546 6.1183 11.8577 5.88388C11.6607 5.64946 11.5501 5.33152 11.5501 5V2.5H2.10002V17.5H11.5501V15C11.5501 14.6685 11.6607 14.3505 11.8577 14.1161C12.0546 13.8817 12.3217 13.75 12.6001 13.75C12.8786 13.75 13.1457 13.8817 13.3426 14.1161C13.5395 14.3505 13.6501 14.6685 13.6501 15V17.5C13.6501 18.163 13.4289 18.7989 13.0351 19.2678C12.6412 19.7366 12.1071 20 11.5501 20H2.10002C1.54306 20 1.00891 19.7366 0.615082 19.2678C0.221252 18.7989 0 18.163 0 17.5V2.5ZM16.0578 5.36625C16.2547 5.13191 16.5218 5.00027 16.8002 5.00027C17.0786 5.00027 17.3456 5.13191 17.5425 5.36625L20.6926 9.11625C20.8894 9.35066 21 9.66854 21 10C21 10.3315 20.8894 10.6493 20.6926 10.8837L17.5425 14.6337C17.3445 14.8614 17.0793 14.9874 16.804 14.9846C16.5286 14.9817 16.2653 14.8503 16.0706 14.6185C15.8759 14.3868 15.7655 14.0732 15.7631 13.7455C15.7607 13.4178 15.8666 13.102 16.0578 12.8663L17.4155 11.25H7.35008C7.0716 11.25 6.80452 11.1183 6.60761 10.8839C6.41069 10.6495 6.30007 10.3315 6.30007 10C6.30007 9.66848 6.41069 9.35054 6.60761 9.11612C6.80452 8.8817 7.0716 8.75 7.35008 8.75H17.4155L16.0578 7.13375C15.861 6.89934 15.7504 6.58146 15.7504 6.25C15.7504 5.91854 15.861 5.60066 16.0578 5.36625Z" fill="#0D0D0D"/>
</svg>
