<svg width="27" height="27" viewBox="0 0 27 27" fill="none" xmlns="http://www.w3.org/2000/svg">
<g clip-path="url(#clip0_106_205)">
<path d="M21.375 3.375H5.625C4.3875 3.375 3.375 4.3875 3.375 5.625V13.5C3.375 14.7375 4.3875 15.75 5.625 15.75H21.375C22.6125 15.75 23.625 14.7375 23.625 13.5V5.625C23.625 4.3875 22.6125 3.375 21.375 3.375ZM21.375 10.125H16.875C16.875 11.9475 15.3225 13.5 13.5 13.5C11.6775 13.5 10.125 11.9475 10.125 10.125H5.625V5.625H21.375V10.125ZM16.875 18H23.625V21.375C23.625 22.6125 22.6125 23.625 21.375 23.625H5.625C4.3875 23.625 3.375 22.6125 3.375 21.375V18H10.125C10.125 19.8675 11.6325 21.375 13.5 21.375C15.3675 21.375 16.875 19.8675 16.875 18Z" fill="black"/>
</g>
<defs>
<clipPath id="clip0_106_205">
<rect width="27" height="27" fill="white"/>
</clipPath>
</defs>
</svg>
