<svg width="1440" height="743" viewBox="0 0 1440 743" fill="none" xmlns="http://www.w3.org/2000/svg">
<mask id="mask0_107_289" style="mask-type:alpha" maskUnits="userSpaceOnUse" x="0" y="0" width="1440" height="743">
<rect width="1440" height="743" fill="#EEDDCC"/>
</mask>
<g mask="url(#mask0_107_289)">
<rect width="1440" height="743" fill="#413531"/>
<path opacity="0.34" d="M0 770.655C44.9624 770.655 44.9624 790 89.9375 790C134.9 790 134.9 770.655 179.875 770.655C224.837 770.655 224.837 790 269.813 790C314.775 790 314.775 770.655 359.737 770.655C404.7 770.655 404.7 790 449.662 790C494.625 790 494.625 770.655 539.6 770.655C584.562 770.655 584.562 790 629.537 790C674.512 790 674.512 770.655 719.475 770.655C764.437 770.655 764.437 790 809.412 790C854.387 790 854.387 770.655 899.35 770.655C944.325 770.655 944.325 790 989.287 790C1034.25 790 1034.25 770.655 1079.22 770.655C1124.2 770.655 1124.2 790 1169.16 790C1214.14 790 1214.14 770.655 1259.1 770.655C1304.07 770.655 1304.07 790 1349.05 790C1394.02 790 1394.02 770.655 1439 770.655M0 730.582C44.9624 730.582 44.9624 749.927 89.9375 749.927C134.9 749.927 134.9 730.582 179.875 730.582C224.837 730.582 224.837 749.927 269.813 749.927C314.775 749.927 314.775 730.582 359.737 730.582C404.7 730.582 404.7 749.927 449.662 749.927C494.625 749.927 494.625 730.582 539.6 730.582C584.562 730.582 584.562 749.927 629.537 749.927C674.512 749.927 674.512 730.582 719.475 730.582C764.437 730.582 764.437 749.927 809.412 749.927C854.387 749.927 854.387 730.582 899.35 730.582C944.325 730.582 944.325 749.927 989.287 749.927C1034.25 749.927 1034.25 730.582 1079.22 730.582C1124.2 730.582 1124.2 749.927 1169.16 749.927C1214.14 749.927 1214.14 730.582 1259.1 730.582C1304.07 730.582 1304.07 749.927 1349.05 749.927C1394.02 749.927 1394.02 730.582 1439 730.582M0 690.509C44.9624 690.509 44.9624 709.855 89.9375 709.855C134.9 709.855 134.9 690.509 179.875 690.509C224.837 690.509 224.837 709.855 269.813 709.855C314.775 709.855 314.775 690.509 359.737 690.509C404.7 690.509 404.7 709.855 449.662 709.855C494.625 709.855 494.625 690.509 539.6 690.509C584.562 690.509 584.562 709.855 629.537 709.855C674.512 709.855 674.512 690.509 719.475 690.509C764.437 690.509 764.437 709.855 809.412 709.855C854.387 709.855 854.387 690.509 899.35 690.509C944.325 690.509 944.325 709.855 989.287 709.855C1034.25 709.855 1034.25 690.509 1079.22 690.509C1124.2 690.509 1124.2 709.855 1169.16 709.855C1214.14 709.855 1214.14 690.509 1259.1 690.509C1304.07 690.509 1304.07 709.855 1349.05 709.855C1394.02 709.855 1394.02 690.509 1439 690.509M0 650.436C44.9624 650.436 44.9624 669.782 89.9375 669.782C134.9 669.782 134.9 650.436 179.875 650.436C224.837 650.436 224.837 669.782 269.813 669.782C314.775 669.782 314.775 650.436 359.737 650.436C404.7 650.436 404.7 669.782 449.662 669.782C494.625 669.782 494.625 650.436 539.6 650.436C584.562 650.436 584.562 669.782 629.537 669.782C674.512 669.782 674.512 650.436 719.475 650.436C764.437 650.436 764.437 669.782 809.412 669.782C854.387 669.782 854.387 650.436 899.35 650.436C944.325 650.436 944.325 669.782 989.287 669.782C1034.25 669.782 1034.25 650.436 1079.22 650.436C1124.2 650.436 1124.2 669.782 1169.16 669.782C1214.14 669.782 1214.14 650.436 1259.1 650.436C1304.07 650.436 1304.07 669.782 1349.05 669.782C1394.02 669.782 1394.02 650.436 1439 650.436M0 610.364C44.9624 610.364 44.9624 629.709 89.9375 629.709C134.9 629.709 134.9 610.364 179.875 610.364C224.837 610.364 224.837 629.709 269.813 629.709C314.775 629.709 314.775 610.364 359.737 610.364C404.7 610.364 404.7 629.709 449.662 629.709C494.625 629.709 494.625 610.364 539.6 610.364C584.562 610.364 584.562 629.709 629.537 629.709C674.512 629.709 674.512 610.364 719.475 610.364C764.437 610.364 764.437 629.709 809.412 629.709C854.387 629.709 854.387 610.364 899.35 610.364C944.325 610.364 944.325 629.709 989.287 629.709C1034.25 629.709 1034.25 610.364 1079.22 610.364C1124.2 610.364 1124.2 629.709 1169.16 629.709C1214.14 629.709 1214.14 610.364 1259.1 610.364C1304.07 610.364 1304.07 629.709 1349.05 629.709C1394.02 629.709 1394.02 610.364 1439 610.364M0 570.291C44.9624 570.291 44.9624 589.636 89.9375 589.636C134.9 589.636 134.9 570.291 179.875 570.291C224.837 570.291 224.837 589.636 269.813 589.636C314.775 589.636 314.775 570.291 359.737 570.291C404.7 570.291 404.7 589.636 449.662 589.636C494.625 589.636 494.625 570.291 539.6 570.291C584.562 570.291 584.562 589.636 629.537 589.636C674.512 589.636 674.512 570.291 719.475 570.291C764.437 570.291 764.437 589.636 809.412 589.636C854.387 589.636 854.387 570.291 899.35 570.291C944.325 570.291 944.325 589.636 989.287 589.636C1034.25 589.636 1034.25 570.291 1079.22 570.291C1124.2 570.291 1124.2 589.636 1169.16 589.636C1214.14 589.636 1214.14 570.291 1259.1 570.291C1304.07 570.291 1304.07 589.636 1349.05 589.636C1394.02 589.636 1394.02 570.291 1439 570.291M0 530.218C44.9624 530.218 44.9624 549.564 89.9375 549.564C134.9 549.564 134.9 530.218 179.875 530.218C224.837 530.218 224.837 549.564 269.813 549.564C314.775 549.564 314.775 530.218 359.737 530.218C404.7 530.218 404.7 549.564 449.662 549.564C494.625 549.564 494.625 530.218 539.6 530.218C584.562 530.218 584.562 549.564 629.537 549.564C674.512 549.564 674.512 530.218 719.475 530.218C764.437 530.218 764.437 549.564 809.412 549.564C854.387 549.564 854.387 530.218 899.35 530.218C944.325 530.218 944.325 549.564 989.287 549.564C1034.25 549.564 1034.25 530.218 1079.22 530.218C1124.2 530.218 1124.2 549.564 1169.16 549.564C1214.14 549.564 1214.14 530.218 1259.1 530.218C1304.07 530.218 1304.07 549.564 1349.05 549.564C1394.02 549.564 1394.02 530.218 1439 530.218M0 490.145C44.9624 490.145 44.9624 509.491 89.9375 509.491C134.9 509.491 134.9 490.145 179.875 490.145C224.837 490.145 224.837 509.491 269.813 509.491C314.775 509.491 314.775 490.145 359.737 490.145C404.7 490.145 404.7 509.491 449.662 509.491C494.625 509.491 494.625 490.145 539.6 490.145C584.562 490.145 584.562 509.491 629.537 509.491C674.512 509.491 674.512 490.145 719.475 490.145C764.437 490.145 764.437 509.491 809.412 509.491C854.387 509.491 854.387 490.145 899.35 490.145C944.325 490.145 944.325 509.491 989.287 509.491C1034.25 509.491 1034.25 490.145 1079.22 490.145C1124.2 490.145 1124.2 509.491 1169.16 509.491C1214.14 509.491 1214.14 490.145 1259.1 490.145C1304.07 490.145 1304.07 509.491 1349.05 509.491C1394.02 509.491 1394.02 490.145 1439 490.145M0 450.073C44.9624 450.073 44.9624 469.418 89.9375 469.418C134.9 469.418 134.9 450.073 179.875 450.073C224.837 450.073 224.837 469.418 269.813 469.418C314.775 469.418 314.775 450.073 359.737 450.073C404.7 450.073 404.7 469.418 449.662 469.418C494.625 469.418 494.625 450.073 539.6 450.073C584.562 450.073 584.562 469.418 629.537 469.418C674.512 469.418 674.512 450.073 719.475 450.073C764.437 450.073 764.437 469.418 809.412 469.418C854.387 469.418 854.387 450.073 899.35 450.073C944.325 450.073 944.325 469.418 989.287 469.418C1034.25 469.418 1034.25 450.073 1079.22 450.073C1124.2 450.073 1124.2 469.418 1169.16 469.418C1214.14 469.418 1214.14 450.073 1259.1 450.073C1304.07 450.073 1304.07 469.418 1349.05 469.418C1394.02 469.418 1394.02 450.073 1439 450.073M0 410C44.9624 410 44.9624 429.345 89.9375 429.345C134.9 429.345 134.9 410 179.875 410C224.837 410 224.837 429.345 269.813 429.345C314.775 429.345 314.775 410 359.737 410C404.7 410 404.7 429.345 449.662 429.345C494.625 429.345 494.625 410 539.6 410C584.562 410 584.562 429.345 629.537 429.345C674.512 429.345 674.512 410 719.475 410C764.437 410 764.437 429.345 809.412 429.345C854.387 429.345 854.387 410 899.35 410C944.325 410 944.325 429.345 989.287 429.345C1034.25 429.345 1034.25 410 1079.22 410C1124.2 410 1124.2 429.345 1169.16 429.345C1214.14 429.345 1214.14 410 1259.1 410C1304.07 410 1304.07 429.345 1349.05 429.345C1394.02 429.345 1394.02 410 1439 410" stroke="url(#paint0_linear_107_289)" stroke-miterlimit="10"/>
</g>
<defs>
<linearGradient id="paint0_linear_107_289" x1="719.5" y1="800.5" x2="719.5" y2="438.5" gradientUnits="userSpaceOnUse">
<stop stop-color="#B27C64"/>
<stop offset="1" stop-color="#B27C64" stop-opacity="0"/>
</linearGradient>
</defs>
</svg>
