<svg width="40" height="40" viewBox="0 0 40 40" fill="none" xmlns="http://www.w3.org/2000/svg">
<g clip-path="url(#clip0_358_82327)">
<path d="M5.18253 15.7563C2.3631 15.7563 0.0136719 16.9525 0.0136719 20.5612C0.0136719 23.4201 1.59349 25.2205 5.25533 25.2205C9.56549 25.2205 9.84179 22.3812 9.84179 22.3812H7.75331C7.75331 22.3812 7.30553 23.91 5.12793 23.91C3.35434 23.91 2.0787 22.7119 2.0787 21.0326H10.0602V19.9788C10.0602 18.3174 9.00551 15.7563 5.18253 15.7563V15.7563ZM5.10973 17.1032C6.79801 17.1032 7.94896 18.1374 7.94896 19.6876H2.1249C2.1249 18.0419 3.62719 17.1032 5.10973 17.1032V17.1032Z" fill="#E53238"/>
<path d="M10.0588 12.2612V23.4075C10.0588 24.0402 10.0137 24.9286 10.0137 24.9286H12.0056C12.0056 24.9286 12.0771 24.2905 12.0771 23.7074C12.0771 23.7074 13.0613 25.2471 15.7373 25.2471C18.5552 25.2471 20.4693 23.2907 20.4693 20.4877C20.4693 17.8802 18.7112 15.783 15.7418 15.783C12.9613 15.783 12.0973 17.2845 12.0973 17.2845V12.2612H10.0588ZM15.2277 17.1616C17.1413 17.1616 18.3581 18.5819 18.3581 20.4877C18.3581 22.5314 16.9527 23.8684 15.2413 23.8684C13.199 23.8684 12.0973 22.2737 12.0973 20.5059C12.0973 18.8587 13.0858 17.1616 15.2277 17.1616Z" fill="#0064D2"/>
<path d="M25.4189 15.7563C21.1772 15.7563 20.9052 18.0789 20.9052 18.45H23.0164C23.0164 18.45 23.1271 17.0941 25.2733 17.0941C26.6678 17.0941 27.7485 17.7324 27.7485 18.9596V19.3964H25.2733C21.9872 19.3964 20.25 20.3577 20.25 22.3084C20.25 24.2282 21.8551 25.2728 24.0243 25.2728C26.9805 25.2728 27.9328 23.6393 27.9328 23.6393C27.9328 24.289 27.9829 24.9293 27.9829 24.9293H29.8597C29.8597 24.9293 29.7869 24.1357 29.7869 23.6279V19.2394C29.7869 16.3619 27.4659 15.7563 25.4189 15.7563V15.7563ZM27.7485 20.7068V21.2892C27.7485 22.0488 27.2797 23.9373 24.5202 23.9373C23.0091 23.9373 22.3612 23.1832 22.3612 22.3084C22.3612 20.7171 24.5431 20.7068 27.7485 20.7068V20.7068Z" fill="#F5AF02"/>
<path d="M28.6504 16.1206H31.0255L34.4342 22.9496L37.835 16.1206H39.9865L33.7919 28.2783H31.5351L33.3226 24.8892L28.6504 16.1206Z" fill="#86B817"/>
</g>
<defs>
<clipPath id="clip0_358_82327">
<rect width="40" height="16.0432" fill="white" transform="translate(0 12.2485)"/>
</clipPath>
</defs>
</svg>
