<svg width="40" height="40" viewBox="0 0 40 40" fill="none" xmlns="http://www.w3.org/2000/svg">
<g clip-path="url(#clip0_356_805)">
<path d="M5.18253 15.7568C2.3631 15.7568 0.0136719 16.953 0.0136719 20.5617C0.0136719 23.4206 1.59349 25.2209 5.25533 25.2209C9.56549 25.2209 9.84179 22.3817 9.84179 22.3817H7.75331C7.75331 22.3817 7.30553 23.9105 5.12793 23.9105C3.35434 23.9105 2.0787 22.7124 2.0787 21.0331H10.0602V19.9793C10.0602 18.3179 9.00551 15.7568 5.18253 15.7568V15.7568ZM5.10973 17.1037C6.79801 17.1037 7.94896 18.1379 7.94896 19.6881H2.1249C2.1249 18.0424 3.62719 17.1037 5.10973 17.1037V17.1037Z" fill="#E53238"/>
<path d="M10.0588 12.2617V23.408C10.0588 24.0407 10.0137 24.9291 10.0137 24.9291H12.0056C12.0056 24.9291 12.0771 24.291 12.0771 23.7079C12.0771 23.7079 13.0613 25.2476 15.7373 25.2476C18.5552 25.2476 20.4693 23.2912 20.4693 20.4882C20.4693 17.8807 18.7112 15.7835 15.7418 15.7835C12.9613 15.7835 12.0973 17.285 12.0973 17.285V12.2617H10.0588ZM15.2277 17.1621C17.1413 17.1621 18.3581 18.5823 18.3581 20.4882C18.3581 22.5319 16.9527 23.8689 15.2413 23.8689C13.199 23.8689 12.0973 22.2742 12.0973 20.5064C12.0973 18.8592 13.0858 17.1621 15.2277 17.1621Z" fill="#0064D2"/>
<path d="M25.4189 15.7568C21.1772 15.7568 20.9052 18.0793 20.9052 18.4505H23.0164C23.0164 18.4505 23.1271 17.0946 25.2733 17.0946C26.6678 17.0946 27.7485 17.7329 27.7485 18.9601V19.3969H25.2733C21.9872 19.3969 20.25 20.3582 20.25 22.3089C20.25 24.2287 21.8551 25.2733 24.0243 25.2733C26.9805 25.2733 27.9328 23.6398 27.9328 23.6398C27.9328 24.2895 27.9829 24.9297 27.9829 24.9297H29.8597C29.8597 24.9297 29.7869 24.1361 29.7869 23.6284V19.2399C29.7869 16.3624 27.4659 15.7568 25.4189 15.7568V15.7568ZM27.7485 20.7073V21.2897C27.7485 22.0493 27.2797 23.9378 24.5202 23.9378C23.0091 23.9378 22.3612 23.1837 22.3612 22.3089C22.3612 20.7175 24.5431 20.7073 27.7485 20.7073V20.7073Z" fill="#F5AF02"/>
<path d="M28.6504 16.1211H31.0255L34.4342 22.9501L37.835 16.1211H39.9865L33.7919 28.2788H31.5351L33.3226 24.8897L28.6504 16.1211Z" fill="#86B817"/>
</g>
<defs>
<clipPath id="clip0_356_805">
<rect width="40" height="16.0432" fill="white" transform="translate(0 12.249)"/>
</clipPath>
</defs>
</svg>
