<svg width="81" height="12" viewBox="0 0 81 12" fill="none" xmlns="http://www.w3.org/2000/svg">
<path d="M6.50098 0L8.50948 3.94953L13.001 4.58675L9.75098 7.65931L10.518 12L6.50098 9.94953L2.48398 12L3.25098 7.65931L0.000976562 4.58675L4.49248 3.94953L6.50098 0Z" fill="#FFB168"/>
<path d="M23.501 0L25.5095 3.94953L30.001 4.58675L26.751 7.65931L27.518 12L23.501 9.94953L19.484 12L20.251 7.65931L17.001 4.58675L21.4925 3.94953L23.501 0Z" fill="#FFB168"/>
<path d="M40.501 0L42.5095 3.94953L47.001 4.58675L43.751 7.65931L44.518 12L40.501 9.94953L36.484 12L37.251 7.65931L34.001 4.58675L38.4925 3.94953L40.501 0Z" fill="#FFB168"/>
<path d="M57.501 0L59.5095 3.94953L64.001 4.58675L60.751 7.65931L61.518 12L57.501 9.94953L53.484 12L54.251 7.65931L51.001 4.58675L55.4925 3.94953L57.501 0Z" fill="#FFB168"/>
<path d="M74.501 0L76.5095 3.94953L81.001 4.58675L77.751 7.65931L78.518 12L74.501 9.94953L70.484 12L71.251 7.65931L68.001 4.58675L72.4925 3.94953L74.501 0Z" fill="#FFB168"/>
</svg>
