<svg width="27" height="30" viewBox="0 0 27 30" fill="none" xmlns="http://www.w3.org/2000/svg">
<path d="M5.25 0.833252L1 6.49992V26.3333C1 27.0847 1.29851 27.8054 1.82986 28.3367C2.36122 28.8681 3.08189 29.1666 3.83333 29.1666H23.6667C24.4181 29.1666 25.1388 28.8681 25.6701 28.3367C26.2015 27.8054 26.5 27.0847 26.5 26.3333V6.49992L22.25 0.833252H5.25Z" stroke="#34251F" stroke-linecap="round" stroke-linejoin="round"/>
<path d="M1 6.5H26.5" stroke="#34251F" stroke-linecap="round" stroke-linejoin="round"/>
<path d="M19.4163 12.1667C19.4163 13.6696 18.8193 15.111 17.7566 16.1737C16.6939 17.2364 15.2526 17.8334 13.7497 17.8334C12.2468 17.8334 10.8054 17.2364 9.74274 16.1737C8.68003 15.111 8.08301 13.6696 8.08301 12.1667" stroke="#34251F" stroke-linecap="round" stroke-linejoin="round"/>
</svg>
