<svg width="26" height="18" viewBox="0 0 26 18" fill="none" xmlns="http://www.w3.org/2000/svg">
<path d="M12.337 17.1629C5.53659 17.1629 0 13.3117 0 8.58144C0 3.85118 5.53659 0 12.337 0C19.1373 0 24.6739 3.85118 24.6739 8.58144C24.6739 13.3117 19.1373 17.1629 12.337 17.1629ZM12.337 1.25582C6.52354 1.25582 1.80541 4.54607 1.80541 8.58144C1.80541 12.6168 6.52354 15.9071 12.337 15.9071C18.1504 15.9071 22.8685 12.6168 22.8685 8.58144C22.8685 4.54607 18.1504 1.25582 12.337 1.25582Z" fill="#292D32"/>
<path d="M24.9753 17.9999C24.7466 17.9999 24.5179 17.9413 24.3374 17.8157L21.9302 16.1413C21.5811 15.8985 21.5811 15.4967 21.9302 15.2539C22.2792 15.0111 22.857 15.0111 23.206 15.2539L25.6132 16.9283C25.9623 17.1711 25.9623 17.573 25.6132 17.8157C25.4327 17.9413 25.204 17.9999 24.9753 17.9999Z" fill="#292D32"/>
</svg>
