<svg width="27" height="30" viewBox="0 0 27 30" fill="none" xmlns="http://www.w3.org/2000/svg">
<path d="M5.25 0.833008L1 6.49967V26.333C1 27.0845 1.29851 27.8051 1.82986 28.3365C2.36122 28.8678 3.08189 29.1663 3.83333 29.1663H23.6667C24.4181 29.1663 25.1388 28.8678 25.6701 28.3365C26.2015 27.8051 26.5 27.0845 26.5 26.333V6.49967L22.25 0.833008H5.25Z" stroke="#34251F" stroke-linecap="round" stroke-linejoin="round"/>
<path d="M1 6.5H26.5" stroke="#34251F" stroke-linecap="round" stroke-linejoin="round"/>
<path d="M19.4173 12.1665C19.4173 13.6694 18.8203 15.1107 17.7576 16.1734C16.6949 17.2361 15.2535 17.8332 13.7507 17.8332C12.2478 17.8332 10.8064 17.2361 9.74371 16.1734C8.68101 15.1107 8.08398 13.6694 8.08398 12.1665" stroke="#34251F" stroke-linecap="round" stroke-linejoin="round"/>
</svg>
