<svg width="16" height="16" viewBox="0 0 16 16" fill="none" xmlns="http://www.w3.org/2000/svg">
<path d="M4.221 13.9997C3.78119 13.9997 3.41233 13.8507 3.11443 13.5528C2.81614 13.2545 2.66699 12.8855 2.66699 12.4457V4.33841H4.221V12.4457H10.569V13.9997H4.221ZM6.94786 11.2728C6.50804 11.2728 6.13918 11.1237 5.84128 10.8254C5.54299 10.5275 5.39384 10.1586 5.39384 9.71881V2.88702C5.39384 2.44721 5.54299 2.07815 5.84128 1.77986C6.13918 1.48196 6.50804 1.33301 6.94786 1.33301H12.0204C12.4602 1.33301 12.8293 1.48196 13.1275 1.77986C13.4254 2.07815 13.5744 2.44721 13.5744 2.88702V9.71881C13.5744 10.1586 13.4254 10.5275 13.1275 10.8254C12.8293 11.1237 12.4602 11.2728 12.0204 11.2728H6.94786ZM6.94786 9.71881H12.0204V2.88702H6.94786V9.71881Z" fill="#18A661"/>
</svg>
