<svg width="16" height="16" viewBox="0 0 16 16" fill="none" xmlns="http://www.w3.org/2000/svg">
<path d="M4.221 14.0002C3.78119 14.0002 3.41233 13.8512 3.11443 13.5533C2.81614 13.255 2.66699 12.886 2.66699 12.4462V4.3389H4.221V12.4462H10.569V14.0002H4.221ZM6.94786 11.2733C6.50804 11.2733 6.13918 11.1242 5.84128 10.8259C5.54299 10.528 5.39384 10.1591 5.39384 9.7193V2.88751C5.39384 2.44769 5.54299 2.07864 5.84128 1.78035C6.13918 1.48245 6.50804 1.3335 6.94786 1.3335H12.0204C12.4602 1.3335 12.8293 1.48245 13.1275 1.78035C13.4254 2.07864 13.5744 2.44769 13.5744 2.88751V9.7193C13.5744 10.1591 13.4254 10.528 13.1275 10.8259C12.8293 11.1242 12.4602 11.2733 12.0204 11.2733H6.94786ZM6.94786 9.7193H12.0204V2.88751H6.94786V9.7193Z" fill="#18A661"/>
</svg>
