<svg width="18" height="18" viewBox="0 0 18 18" fill="none" xmlns="http://www.w3.org/2000/svg">
<path fill-rule="evenodd" clip-rule="evenodd" d="M14.6272 5.21121C14.6709 4.11805 13.7729 3.22001 12.6797 3.26374L10.1007 3.3669C9.62992 3.38573 9.18353 3.58117 8.8504 3.9143L4.07234 8.69237C3.34047 9.42424 3.34047 10.6108 4.07234 11.3427L6.54822 13.8186C7.28008 14.5504 8.46668 14.5504 9.19854 13.8186L13.9766 9.04051C14.3097 8.70737 14.5052 8.26099 14.524 7.79024L14.6272 5.21121ZM11.3404 6.55366C11.7497 6.96296 12.4133 6.96296 12.8226 6.55366C13.2319 6.14436 13.2319 5.48075 12.8226 5.07145C12.4133 4.66215 11.7497 4.66215 11.3404 5.07145C10.9311 5.48075 10.9311 6.14436 11.3404 6.55366Z" fill="#05B3FF"/>
</svg>
