<svg width="18" height="18" viewBox="0 0 18 18" fill="none" xmlns="http://www.w3.org/2000/svg">
<path fill-rule="evenodd" clip-rule="evenodd" d="M14.6272 5.2117C14.6709 4.11854 13.7729 3.2205 12.6797 3.26423L10.1007 3.36739C9.62992 3.38622 9.18353 3.58166 8.8504 3.91479L4.07234 8.69286C3.34047 9.42473 3.34047 10.6113 4.07234 11.3432L6.54822 13.8191C7.28008 14.5509 8.46668 14.5509 9.19854 13.8191L13.9766 9.04099C14.3097 8.70786 14.5052 8.26148 14.524 7.79073L14.6272 5.2117ZM11.3404 6.55415C11.7497 6.96345 12.4133 6.96345 12.8226 6.55415C13.2319 6.14485 13.2319 5.48124 12.8226 5.07194C12.4133 4.66263 11.7497 4.66263 11.3404 5.07194C10.9311 5.48124 10.9311 6.14485 11.3404 6.55415Z" fill="#05B3FF"/>
</svg>
