<svg width="157" height="109" viewBox="0 0 157 109" fill="none" xmlns="http://www.w3.org/2000/svg">
<path d="M5.89168 1.62158L1.50977 5.38163M5.89168 27.3153L1.50977 31.0753M5.89168 53.0089L1.50977 56.769M5.89168 78.7026L1.50977 82.4627M5.89168 104.396L1.50977 108.156M35.8348 1.62158L31.4528 5.38163M35.8348 27.3153L31.4528 31.0753M35.8348 53.0089L31.4528 56.769M35.8348 78.7026L31.4528 82.4627M35.8348 104.396L31.4528 108.156M65.7778 1.62158L61.3959 5.38163M65.7778 27.3153L61.3959 31.0753M65.7778 53.0089L61.3959 56.769M65.7778 78.7026L61.3959 82.4627M65.7778 104.396L61.3959 108.156M95.7209 1.62158L91.339 5.38163M95.7209 27.3153L91.339 31.0753M95.7209 53.0089L91.339 56.769M95.7209 78.7026L91.339 82.4627M95.7209 104.396L91.339 108.156M125.664 1.62158L121.282 5.38163M125.664 27.3153L121.282 31.0753M125.664 53.0089L121.282 56.769M125.664 78.7026L121.282 82.4627M125.664 104.396L121.282 108.156M155.607 1.62158L151.225 5.38163M155.607 27.3153L151.225 31.0753M155.607 53.0089L151.225 56.769M155.607 78.7026L151.225 82.4627M155.607 104.396L151.225 108.156" stroke="#34251F" stroke-width="2"/>
</svg>
