<svg width="71" height="70" viewBox="0 0 71 70" fill="none" xmlns="http://www.w3.org/2000/svg">
<path d="M22.6262 46.4877C16.4662 50.9582 8.97914 55.166 3.68236 60.7416C3.55255 60.8782 1.85307 62.2377 1.90446 62.3662C1.99956 62.6039 2.37749 62.1565 2.57884 61.9984C6.26071 59.1055 9.84815 56.1252 13.5834 53.2928C23.6486 45.6604 33.9924 38.559 45.1564 32.6324C46.6188 31.8561 48.4615 30.5743 50.2142 30.4867C50.3812 30.4783 51.4623 30.4281 50.8886 30.7932C45.841 34.0053 39.7321 36.4041 34.4584 39.1922C28.1677 42.518 21.8957 45.912 15.4533 48.94C15.1997 49.0592 12.8761 49.7967 12.3879 50.3501C11.3032 51.5794 15.6691 50.9471 17.2925 50.7179C23.6933 49.8143 29.7356 47.3355 35.7458 45.0777C38.4438 44.0642 46.4391 40.8406 43.6544 41.5832C37.8695 43.1258 32.207 48.5797 27.6533 52.0667C21.7064 56.6204 14.1544 61.2914 9.07736 66.9029C3.87017 72.6582 22.2827 58.4446 29.6458 55.9903C34.2197 54.4656 22.4981 62.6411 18.2121 64.8491C17.026 65.4601 16.955 65.9414 17.3538 64.2667C18.12 61.0484 19.6877 58.4588 21.4 55.6838C23.3218 52.5692 21.8589 55.5784 20.695 55.837C19.3412 56.1379 21.3186 53.3228 21.3387 53.2928C23.7869 49.6399 27.3914 47.0951 30.5347 44.0968C34.1219 40.6751 29.4436 46.6331 28.2664 47.5913C25.6673 49.7068 26.8532 47.6663 26.0287 49.1852C24.7353 51.5678 23.0724 53.8485 21.3387 55.929C18.507 59.3271 26.2807 48.5774 29.0634 45.139C40.939 30.4646 53.1958 15.7762 67.1655 3.02122C67.9582 2.2975 68.721 1.50225 68.1771 2.8373C67.314 4.95589 65.7159 6.52989 64.1309 8.14034C52.563 19.8933 40.266 30.9386 28.4503 42.4415C25.0195 45.7815 21.5231 49.0928 18.4879 52.8023C17.4965 54.0141 16.9476 55.2377 15.7598 56.2355C15.0238 56.8537 9.90589 61.9332 10.7633 58.1973C12.0607 52.5445 14.3812 46.9926 16.8633 41.7671C17.5415 40.3393 19.5765 37.4527 16.5568 39.0083C14.7378 39.9453 10.3893 44.3788 11.8362 42.9319C13.3215 41.4466 16.835 38.7631 19.0397 38.7631C20.2041 38.7631 19.6413 40.616 20.4191 40.2957C23.2936 39.1121 19.5629 43.8341 19.1317 44.4953C15.2032 50.5189 21.1558 41.159 18.3347 46.4877C17.4455 48.1672 20.6901 43.3885 22.3196 42.4108C24.5303 41.0844 23.6028 42.9831 24.4041 43.6063C24.6197 43.7741 27.1396 33.7162 27.592 32.5098C28.4673 30.1757 26.8907 31.4306 25.6608 32.3872C24.4361 33.3397 24.0609 32.6719 22.9327 34.1651C20.8994 36.8562 19.3201 40.0534 17.9668 43.1465C17.5682 44.0577 16.0315 50.5377 16.9859 46.2425C18.0121 41.6245 12.7558 43.7973 12.7558 40.6942C12.7558 40.2887 19.4768 40.203 13.3688 38.0887C12.023 37.6228 10.5273 36.8392 9.13866 36.5867C7.65546 36.317 10.2271 37.9469 10.61 38.0887C14.0471 39.3617 18.2635 38.9375 21.8292 39.1922C26.7546 39.544 31.727 40.4809 36.6654 41.0008C39.5456 41.304 42.3049 42.2026 45.1871 42.5028C47.1806 42.7105 49.1347 42.5556 51.0725 43.1772C52.4181 43.6088 56.3057 44.2807 55.9771 44.2807C47.6903 44.2807 39.7023 42.6254 31.4543 42.6254C22.3401 42.6254 49.6829 42.6254 58.7972 42.6254C61.8487 42.6254 62.858 41.5917 58.6745 42.4415C54.6934 43.2502 50.7204 44.3855 46.781 45.3842C44.7521 45.8986 42.675 47.0395 40.5584 47.0395C36.9531 47.0395 38.3939 47.0395 41.386 47.0395C44.8499 47.0395 48.3137 47.0395 51.7775 47.0395C53.3205 47.0395 55.569 46.1483 52.5132 45.4149C45.5241 43.7375 36.5656 44.1953 29.5538 45.8134C25.2647 46.8032 28.2261 45.3436 30.9332 44.4646C42.042 40.8579 53.719 39.8455 64.8665 36.556C65.5369 36.3582 68.394 36.3391 68.8515 35.8817C70.9744 33.7588 59.9204 33.8274 59.9007 33.8279C55.1968 33.944 51.3069 35.3836 46.9036 36.6786C44.4982 37.3861 44.9991 38.2113 47.2715 38.2113C53.8747 38.2113 73.6768 37.6596 67.0736 37.6596C61.2397 37.6596 56.1506 38.6001 50.5821 40.4184C46.5634 41.7306 43.7744 44.4408 40.2825 46.4877C40.1929 46.5403 46.6735 45.7658 48.3137 45.5068C50.4427 45.1707 52.7202 45.3842 54.8735 45.3842C57.7428 45.3842 48.9972 46.4045 48.4976 46.4877C43.4409 47.3305 37.9597 49.4375 32.8031 49.2465C30.6053 49.1651 36.9331 47.7294 38.9644 46.8862C44.7684 44.477 50.5242 42.0246 56.2223 39.3761C59.2826 37.9537 62.4161 36.6076 65.2957 34.9621C70.1682 32.1778 55.5921 40.6032 50.7047 43.3611C48.809 44.4308 42.7865 46.5305 41.7539 48.94C41.3906 49.7875 43.607 48.6974 44.4514 48.3269C47.8079 46.8542 51.1758 45.4334 54.6896 44.3727C56.6995 43.7659 58.6005 43.1772 60.6977 43.1772C61.6818 43.1772 58.7412 43.4846 57.8163 43.8209C54.8562 44.8973 52.0319 46.1119 48.9268 46.733C45.7987 47.3586 44.201 47.5982 47.3328 44.8325C50.4234 42.103 54.1809 39.4324 58.2454 38.3339C59.2243 38.0694 61.7591 37.6825 60.9429 39.3148C60.5392 40.1221 59.373 41.8015 60.6977 42.5028C61.1248 42.7289 64.0712 42.8578 63.4258 41.8897C62.6991 40.7996 61.6881 43.8509 60.8203 44.8325C59.4795 46.3491 57.9277 47.6784 56.6208 49.2159C55.9839 49.9652 55.4195 51.1772 54.6283 51.7601C53.5135 52.5815 54.0533 46.8422 54.0765 46.6717C54.2286 45.5562 53.9415 38.9457 55.4559 38.2726C57.3478 37.4318 56.8353 42.0308 56.8353 42.8706C56.8353 43.4814 56.8077 46.3779 56.8353 45.936C56.98 43.621 58.0609 46.4001 57.9082 47.6219C57.848 48.1035 57.0806 49.0009 57.0806 49.2465C57.0806 49.7288 57.9389 48.0817 57.9389 48.0817C57.9389 48.0817 57.4788 49.0892 57.1419 49.5224C56.4155 50.4563 57.4221 50.1674 57.9389 49.7983C59.2688 48.8483 59.4038 49.737 60.4524 49.737C61.5773 49.737 63.1645 47.2322 64.0082 46.4877C64.2319 46.2904 61.4007 50.3914 59.87 51.1164C59.0169 51.5205 58.3531 51.423 58.6132 50.3501C58.7644 49.7264 60.2318 48.3637 59.7781 48.8174C51.7323 56.8632 59.0036 42.8713 56.7434 40.2344C56.1704 39.566 52.6665 42.1829 52.6665 42.6254C52.6665 42.8048 55.1188 43.9394 55.1188 45.139C55.1188 46.8942 51.184 49.932 49.969 51.1471C49.558 51.558 48.9229 52.014 48.6815 52.5571C48.3447 53.3151 49.4172 53.3769 49.4172 53.6606C49.4172 53.9059 46.1012 52.2768 46.0453 52.2506C45.0847 51.7985 43.8068 52.0053 42.7654 52.0053C40.0085 52.0053 36.3468 51.1998 34.2131 53.1089C32.6405 54.5159 29.2895 56.7681 27.1629 54.6415C24.7767 52.2554 35.5341 53.2664 36.7574 53.0782C42.5954 52.1801 47.6139 49.0683 52.9424 47.0701C55.7839 46.0046 51.8704 45.9882 50.7966 46.2119C48.7331 46.6418 46.7851 46.6063 45.2484 48.143C43.1501 50.2413 37.1394 49.6443 34.2131 49.7983C27.9083 50.1301 37.1418 50.3501 39.2096 50.3501C46.0163 50.3501 52.3833 49.083 59.1037 48.2656C61.1013 48.0227 64.1563 48.306 65.9394 47.3154C67.2512 46.5866 67.3188 46.0252 67.3188 44.5259C67.3188 41.4212 65.0237 42.8254 62.8434 43.9742C61.0355 44.9267 56.3404 46.5492 55.0268 48.3882C54.973 48.4636 60.402 48.6948 61.1268 48.6948C62.3464 48.6948 64.1715 49.0833 65.1118 48.143C66.7332 46.5216 58.6449 49.8367 57.8163 50.2888C48.4639 55.3901 46.174 41.972 40.6197 37.3837C36.618 34.0779 28.3561 35.0051 26.1819 29.5058C25.3712 27.455 25.7363 25.4404 24.5573 23.3444C22.7714 20.1694 15.7989 19.2792 12.6945 18.3479" stroke="white" stroke-width="3" stroke-linecap="round"/>
</svg>
