<svg width="79" height="86" viewBox="0 0 79 86" fill="none" xmlns="http://www.w3.org/2000/svg">
<path d="M-23.0427 1L-26 3.96471M-23.0427 21.2588L-26 24.2235M-23.0427 41.5176L-26 44.4824M-23.0427 61.7765L-26 64.7412M-23.0427 82.0353L-26 85M-2.83412 1L-5.79147 3.96471M-2.83412 21.2588L-5.79147 24.2235M-2.83412 41.5176L-5.79147 44.4824M-2.83412 61.7765L-5.79147 64.7412M-2.83412 82.0353L-5.79147 85M17.3744 1L14.4171 3.96471M17.3744 21.2588L14.4171 24.2235M17.3744 41.5176L14.4171 44.4824M17.3744 61.7765L14.4171 64.7412M17.3744 82.0353L14.4171 85M37.5829 1L34.6256 3.96471M37.5829 21.2588L34.6256 24.2235M37.5829 41.5176L34.6256 44.4824M37.5829 61.7765L34.6256 64.7412M37.5829 82.0353L34.6256 85M57.7915 1L54.8341 3.96471M57.7915 21.2588L54.8341 24.2235M57.7915 41.5176L54.8341 44.4824M57.7915 61.7765L54.8341 64.7412M57.7915 82.0353L54.8341 85M78 1L75.0427 3.96471M78 21.2588L75.0427 24.2235M78 41.5176L75.0427 44.4824M78 61.7765L75.0427 64.7412M78 82.0353L75.0427 85" stroke="#34251F" stroke-width="2"/>
</svg>
