<svg width="29" height="59" viewBox="0 0 29 59" fill="none" xmlns="http://www.w3.org/2000/svg">
<path d="M17.9018 19.3833C17.2523 25.2287 14.6508 31.227 12.7214 36.7637C12.0793 38.6063 10.786 40.5598 10.7289 42.5572C10.6962 43.7029 10.3958 47.4367 11.7711 44.5804C16.9602 33.803 19.736 21.7688 22.3465 10.1566C22.8802 7.7828 24.1106 4.78852 23.9711 2.27868C23.9347 1.62338 23.0551 1.54944 22.5611 1.81888C19.6322 3.41647 17.6285 8.89462 16.2465 11.6586C13.7141 16.7234 10.7289 21.8513 10.7289 27.629C10.7289 30.5246 9.90211 32.2613 9.38013 35.1085C8.47132 40.0656 8.5044 45.2778 7.17309 50.1593C6.7819 51.5936 6.30374 53.8164 6.03891 50.9563C5.41521 44.2203 5.76303 30.6637 5.76303 30.6637C5.76303 30.6637 6.28043 34.2104 6.31479 35.9974C6.32269 36.4078 6.06547 39.3578 6.71329 39.308C9.25942 39.1121 12.4828 31.026 13.7942 29.0084C18.5234 21.7328 14.4387 38.8382 12.66 33.1466C12.3069 32.0167 11.2841 28.6646 9.90124 31.2768C9.02555 32.9309 7.97008 36.8848 7.97008 32.3803C7.97008 31.9867 8.00298 30.0368 7.90877 30.2959C6.08623 35.3079 4.85565 40.5363 3.24945 45.6226C0.791489 53.4061 4.34009 40.5032 4.65951 39.3693C5.51608 36.3285 6.86656 33.2756 6.86656 30.0813C6.86656 29.0327 6.28299 20.8957 8.2153 24.533C9.42207 26.8046 9.56975 30.1902 9.62536 32.7482C9.66008 34.3452 9.78871 35.2997 10.453 33.0853C10.9551 31.4115 11.2806 23.9831 11.2806 29.2537C11.2806 33.425 16.2121 13.405 15.6947 17.5441C14.6124 26.2026 12.3941 34.747 9.96255 43.109C8.99213 46.4463 7.94404 49.757 7.2344 53.1633C7.01486 54.2171 7.07998 55.9944 6.31479 56.903C5.571 57.7863 8.22487 47.5104 8.27661 47.3085C9.64386 41.9729 10.5746 36.4637 12.2616 31.2155C13.3225 27.9148 10.7228 37.9825 9.71732 41.3005C8.73077 44.5561 7.79102 48.667 11.158 43.6608C11.7083 42.8426 17.9018 33.3514 17.9018 38.1432C17.9018 41.1935 23.7886 31.2754 24.7375 30.3265C24.9916 30.0724 23.9711 35.7367 23.9711 31.8899C23.9711 29.8912 23.1891 35.8549 22.3159 37.6527C22.1436 38.0074 20.6584 41.2748 20.354 41.3618C19.8734 41.4991 18.544 40.902 17.9018 40.902C17.3996 40.902 15.2656 41.5298 15.2656 40.9633C15.2656 37.7927 16.9373 33.7102 17.8405 30.8783C19.6816 25.1051 21.547 19.0011 24.6455 13.7431C24.809 13.4657 26.73 10.4823 26.73 11.1069C26.73 15.8856 22.8515 19.8043 22.3465 24.3491C22.125 26.3429 21.2123 27.3833 21.2123 29.5602C21.2123 31.1337 21.2123 32.7073 21.2123 34.2808" stroke="white" stroke-width="3" stroke-linecap="round"/>
</svg>
